<?xml version="1.0" encoding="UTF-8"?>
<svg version="1.1" xmlns="http://www.w3.org/2000/svg" width="525" height="512">
<path d="M0 0 C173.25 0 346.5 0 525 0 C525 168.96 525 337.92 525 512 C351.75 512 178.5 512 0 512 C0 343.04 0 174.08 0 0 Z " fill="#27DEBF" transform="translate(0,0)"/>
<path d="M0 0 C1.03133057 -0.00218285 1.03133057 -0.00218285 2.08349609 -0.00440979 C3.52901471 -0.00275876 4.97455237 0.00871297 6.41992188 0.02954102 C8.61925731 0.05851809 10.81618015 0.05013111 13.015625 0.03710938 C25.01459523 0.09014115 25.01459523 0.09014115 30.625 3.49609375 C34.49864288 7.68381578 35.7568624 10.73879731 35.72265625 16.3828125 C35.71782227 17.78950195 35.71782227 17.78950195 35.71289062 19.22460938 C35.70032227 20.68930664 35.70032227 20.68930664 35.6875 22.18359375 C35.68298828 23.17166016 35.67847656 24.15972656 35.67382812 25.17773438 C35.66204303 27.61724849 35.64559011 30.05664064 35.625 32.49609375 C35.07150879 32.50543945 34.51801758 32.51478516 33.94775391 32.52441406 C15.82702908 32.58196852 15.82702908 32.58196852 0.625 41.49609375 C-2.28660825 45.11050399 -2.86886251 48.05941235 -2.6484375 52.578125 C-2.21506788 55.6179033 -1.39270955 57.16311708 0.625 59.49609375 C3.18866571 61.35502884 5.86781188 62.94282403 8.625 64.49609375 C13.53544776 67.31698927 13.53544776 67.31698927 14.625 69.49609375 C15.14170383 73.37137244 15.00235248 74.97266934 12.6875 78.18359375 C6.07271571 83.17843086 -1.14352702 83.95750522 -9.23046875 83.9296875 C-10.13573807 83.93492935 -11.04100739 83.9401712 -11.97370911 83.9455719 C-13.87202942 83.95195073 -15.77038949 83.95070929 -17.66870117 83.94213867 C-20.56565413 83.93358444 -23.46066081 83.9625182 -26.35742188 83.99414062 C-28.21093691 83.9957519 -30.06445542 83.99517652 -31.91796875 83.9921875 C-32.77746628 84.00342148 -33.63696381 84.01465546 -34.52250671 84.02622986 C-39.90935652 83.96394776 -43.21085018 83.2453933 -47.375 79.49609375 C-50.7269587 73.84804939 -49.74697722 66.7259437 -49.74560547 60.34936523 C-49.74998054 58.06873991 -49.7863411 55.79004934 -49.82421875 53.50976562 C-49.83008763 52.04818365 -49.83405655 50.58659255 -49.8359375 49.125 C-49.84415527 47.8057251 -49.85237305 46.4864502 -49.86083984 45.12719727 C-49.29593138 40.90514525 -48.03731804 38.78090606 -45.375 35.49609375 C-39.8295909 31.67502354 -34.2156815 32.04117332 -27.74414062 31.96875 C-26.58108398 31.93587891 -26.58108398 31.93587891 -25.39453125 31.90234375 C-24.34422729 31.89170898 -24.34422729 31.89170898 -23.27270508 31.88085938 C-20.76248705 31.37190484 -19.88497423 30.54484766 -18.375 28.49609375 C-17.93895636 26.57345323 -17.93895636 26.57345323 -18.00390625 24.4765625 C-17.98650391 23.70119141 -17.96910156 22.92582031 -17.95117188 22.12695312 C-17.94212296 20.50978255 -17.93685847 18.89258598 -17.93554688 17.27539062 C-17.80623362 11.88436551 -17.05755407 8.70736176 -13.375 4.49609375 C-8.81167262 0.86584422 -5.80030751 -0.00845633 0 0 Z " fill="#FCFEFD" transform="translate(116.375,184.50390625)"/>
<path d="M0 0 C1.19923599 -0.01210762 1.19923599 -0.01210762 2.42269897 -0.02445984 C4.1017648 -0.03820721 5.78085748 -0.04897056 7.45996094 -0.05688477 C9.17260967 -0.06846553 10.88522065 -0.08901226 12.59765625 -0.1184082 C15.08618409 -0.16104282 17.57365261 -0.1772394 20.0625 -0.1875 C20.82406403 -0.20500809 21.58562805 -0.22251617 22.37026978 -0.24055481 C26.09787629 -0.22536197 28.19039408 0.10455867 31.35693359 2.13989258 C34.82047308 5.69994064 34.57238628 8.67233985 34.6015625 13.40625 C34.60726257 14.11928787 34.61296265 14.83232574 34.61883545 15.56697083 C34.62828939 17.07921871 34.634821 18.59148723 34.63867188 20.10375977 C34.6483275 22.39962689 34.67932439 24.69457935 34.7109375 26.99023438 C34.71747291 28.46223429 34.72272126 29.93424059 34.7265625 31.40625 C34.7389093 32.08568161 34.7512561 32.76511322 34.76397705 33.46513367 C34.74086255 38.49994448 33.6625382 41.83744624 31.3984375 46.23828125 C26.63984589 50.57882837 20.32976024 49.70119746 14.25976562 49.765625 C10.84692654 49.85663404 8.03718623 49.99193456 4.8359375 51.2265625 C2.50598823 54.4872252 2.93883993 58.06994846 2.9609375 61.92578125 C2.77504929 68.8578339 2.58367119 74.15815899 -2.6015625 79.23828125 C-9.74129412 83.89975892 -16.22794247 83.87523289 -24.6015625 83.80078125 C-25.83390625 83.82462891 -27.06625 83.84847656 -28.3359375 83.87304688 C-35.59290974 83.8613672 -41.24269818 83.47925729 -46.6015625 78.23828125 C-51.11410767 73.1255773 -51.11074746 67.85517003 -50.8515625 61.30078125 C-50.83351563 60.42615234 -50.81546875 59.55152344 -50.796875 58.65039062 C-50.75014603 56.51254017 -50.67841691 54.3752608 -50.6015625 52.23828125 C-49.63500732 52.23211792 -49.63500732 52.23211792 -48.64892578 52.22583008 C-45.67392969 52.19253782 -42.70088652 52.12185885 -39.7265625 52.05078125 C-38.71335937 52.04498047 -37.70015625 52.03917969 -36.65625 52.03320312 C-28.16989962 51.78840456 -21.02987628 49.83382985 -15.0390625 43.55078125 C-11.94227359 38.56899039 -11.89575739 34.02756361 -12.6015625 28.23828125 C-15.67384271 23.5274516 -20.38836803 21.68585539 -25.39453125 19.44921875 C-27.6015625 18.23828125 -27.6015625 18.23828125 -29.6015625 15.23828125 C-29.6015625 11.03613544 -28.94006345 9.58484175 -25.9765625 6.55078125 C-18.0851653 0.69344347 -9.46956765 0.09234273 0 0 Z " fill="#FBFEFD" transform="translate(149.6015625,221.76171875)"/>
<path d="M0 0 C5.6851853 2.35629373 9.03432391 5.57152334 12 11 C12.49609375 14.65625 12.49609375 14.65625 12.4375 18.5 C12.43621094 19.7684375 12.43492187 21.036875 12.43359375 22.34375 C11.83182889 27.41809156 10.33324243 30.73692823 6.625 34.25 C2.12733716 37.24844189 -1.29665706 38.21030639 -6.7421875 38.4609375 C-9 38 -9 38 -16 34 C-16 39.61 -16 45.22 -16 51 C-18.97 51 -21.94 51 -25 51 C-25 34.5 -25 18 -25 1 C-22.03 1 -19.06 1 -16 1 C-15.67 1.99 -15.34 2.98 -15 4 C-14.195625 3.34 -13.39125 2.68 -12.5625 2 C-8.49717686 -0.66876507 -4.7230652 -0.91903976 0 0 Z " fill="#F9FDFC" transform="translate(349,215)"/>
<path d="M0 0 C2.02323613 0.95211112 4.02699884 1.94773272 6 3 C9.89224525 3.3770189 9.89224525 3.3770189 12.1875 1.5 C16.15655817 -0.61683103 19.59242029 -0.83030111 24 0 C27.29869262 1.6982676 29.46154085 3.93235757 31.14794922 7.27612305 C32.14109869 10.45107107 32.2268262 13.06983573 32.1953125 16.39453125 C32.18886719 17.59658203 32.18242187 18.79863281 32.17578125 20.03710938 C32.15902344 21.28298828 32.14226562 22.52886719 32.125 23.8125 C32.11597656 25.07771484 32.10695313 26.34292969 32.09765625 27.64648438 C32.07412394 30.76451564 32.04124545 33.88216097 32 37 C29.03 37 26.06 37 23 37 C22.98541748 36.29391602 22.97083496 35.58783203 22.95581055 34.86035156 C22.88126833 31.65635326 22.78462795 28.45338984 22.6875 25.25 C22.65366211 23.58324219 22.65366211 23.58324219 22.61914062 21.8828125 C22.58369141 20.81289062 22.54824219 19.74296875 22.51171875 18.640625 C22.48553467 17.65610352 22.45935059 16.67158203 22.43237305 15.65722656 C21.94440233 12.65831447 20.99951045 11.24392093 19 9 C16.06556598 9.26656572 16.06556598 9.26656572 13 10 C10.77464206 13.33803691 10.71021596 14.62819711 10.5859375 18.54296875 C10.54726563 19.61611328 10.50859375 20.68925781 10.46875 21.79492188 C10.42234375 23.47424805 10.42234375 23.47424805 10.375 25.1875 C10.33632813 26.31865234 10.29765625 27.44980469 10.2578125 28.61523438 C10.16347467 31.4099925 10.07788348 34.20474278 10 37 C7.03 37 4.06 37 1 37 C0.98541748 36.25838623 0.97083496 35.51677246 0.95581055 34.75268555 C0.88140543 31.39709369 0.78471994 28.04250506 0.6875 24.6875 C0.66494141 23.52025391 0.64238281 22.35300781 0.61914062 21.15039062 C0.58369141 20.03212891 0.54824219 18.91386719 0.51171875 17.76171875 C0.48553467 16.73006592 0.45935059 15.69841309 0.43237305 14.63549805 C0.19304874 11.98977447 0.19304874 11.98977447 -1.30541992 10.12817383 C-3.16473825 8.64721246 -3.16473825 8.64721246 -6.625 9.1875 C-7.73875 9.455625 -8.8525 9.72375 -10 10 C-11.31361698 12.62723396 -11.21253909 14.72610561 -11.31640625 17.6640625 C-11.35830078 18.78554687 -11.40019531 19.90703125 -11.44335938 21.0625 C-11.50233398 22.8259375 -11.50233398 22.8259375 -11.5625 24.625 C-11.60568359 25.80835938 -11.64886719 26.99171875 -11.69335938 28.2109375 C-11.79967426 31.14050328 -11.90170642 34.07015588 -12 37 C-15.3 37 -18.6 37 -22 37 C-22 25.12 -22 13.24 -22 1 C-19.03 1 -16.06 1 -13 1 C-12.67 1.66 -12.34 2.32 -12 3 C-11.319375 2.505 -10.63875 2.01 -9.9375 1.5 C-6.28168831 -0.36679746 -4.06691572 -0.42809639 0 0 Z " fill="#F8FDFC" transform="translate(286,215)"/>
<path d="M0 0 C3.61508525 2.98637477 5.59292256 5.52293541 7 10 C4.03 10.99 1.06 11.98 -2 13 C-2.66 12.01 -3.32 11.02 -4 10 C-5.64461094 8.00196264 -6.49648918 7.1155283 -9.04296875 6.53125 C-11.473865 6.4441805 -11.473865 6.4441805 -15 7 C-17.28728734 8.83883881 -17.28728734 8.83883881 -17.125 11.625 C-17.08375 12.40875 -17.0425 13.1925 -17 14 C-15.70954304 14.58600461 -14.41753112 15.16858462 -13.125 15.75 C-11.89910156 16.30300781 -11.89910156 16.30300781 -10.6484375 16.8671875 C-8.90461053 17.61307219 -7.1378353 18.3077343 -5.3515625 18.9453125 C0.41231148 21.00507528 4.00751312 22.51377406 7 28 C7.73321899 32.88812662 7.6236538 37.27578068 5.9375 41.9375 C2.22648963 45.88793039 -2.77094889 48.7064499 -8.234375 49.203125 C-14.40331034 49.31807411 -19.67740233 49.00328309 -24.50390625 44.640625 C-27.23338474 41.62342371 -28.64244962 39.05223767 -29 35 C-25.62902617 33.50178941 -23.79557881 33 -20 33 C-18.375 35.4375 -18.375 35.4375 -17 38 C-14.64653604 39.17673198 -13.1193967 39.16623866 -10.5 39.1875 C-9.7059375 39.20167969 -8.911875 39.21585938 -8.09375 39.23046875 C-5.77966683 39.19666303 -5.77966683 39.19666303 -4 37 C-3.83322718 33.41656024 -3.83322718 33.41656024 -4 30 C-5.01707031 29.76216797 -5.01707031 29.76216797 -6.0546875 29.51953125 C-13.59514034 27.62919612 -21.56458882 25.53645268 -27.125 19.8125 C-28.49289256 15.41570249 -28.97091919 11.53784216 -28 7 C-25.58640973 2.92326349 -22.58558472 -0.02425555 -18.5625 -2.5 C-11.79903656 -3.81970018 -6.07437514 -3.26481405 0 0 Z " fill="#F8FDFC" transform="translate(236,204)"/>
<path d="M0 0 C3.24211298 2.93334031 4.90569106 5.34123671 6.625 9.375 C6.625 12.345 6.625 15.315 6.625 18.375 C-1.955 18.375 -10.535 18.375 -19.375 18.375 C-17.03651858 24.29231018 -17.03651858 24.29231018 -13.375 26.375 C-11.14929623 26.51318982 -11.14929623 26.51318982 -8.8125 26.1875 C-8.02746094 26.11144531 -7.24242187 26.03539062 -6.43359375 25.95703125 C-3.99452033 25.50817428 -3.99452033 25.50817428 -2.375 22.375 C-0.065 23.035 2.245 23.695 4.625 24.375 C4.625 28.375 4.625 28.375 3.234375 30.04296875 C2.62078125 30.54441406 2.0071875 31.04585937 1.375 31.5625 C0.77171875 32.07167969 0.1684375 32.58085937 -0.453125 33.10546875 C-4.86155186 36.01753934 -10.26151438 35.99691041 -15.375 35.375 C-20.98610586 33.35850883 -24.47334142 29.58791053 -27.45703125 24.546875 C-29.48363318 19.75202108 -29.11376 14.00268526 -27.72265625 9.0546875 C-25.50722354 4.05332439 -22.23858674 0.86012217 -17.375 -1.625 C-11.57561492 -3.56601868 -5.40896519 -2.60431657 0 0 Z " fill="#F8FDFC" transform="translate(408.375,217.625)"/>
<path d="M0 0 C3.82810735 -0.6130421 7.20334607 -0.88536511 11 0 C13.77821763 2.99354262 15.41578092 6.25669754 17 10 C17.38929688 9.278125 17.77859375 8.55625 18.1796875 7.8125 C19.94403831 4.88546641 21.58149269 2.42275776 24 0 C27.48566369 -0.86003313 30.48733728 -0.63609586 34 0 C32.19248987 5.26951365 29.00716073 9.05400545 25.58203125 13.37890625 C23.76427903 15.77299406 23.76427903 15.77299406 24.25830078 17.93652344 C25.03748852 20.10429657 25.98070735 21.74139388 27.28515625 23.63671875 C27.73310547 24.29607422 28.18105469 24.95542969 28.64257812 25.63476562 C29.34543945 26.65086914 29.34543945 26.65086914 30.0625 27.6875 C35 34.8883015 35 34.8883015 35 36 C31.51604528 36.56780751 28.46399714 36.75916338 25 36 C22.00997354 33.39883463 19.89344578 30.47340715 18 27 C18 26.34 18 25.68 18 25 C17.34 25 16.68 25 16 25 C15.773125 25.70125 15.54625 26.4025 15.3125 27.125 C13.70654722 30.64280133 12.24048922 33.79765378 9 36 C5.60804201 36.503859 2.40208061 36.35672302 -1 36 C2.84282322 29.87584657 6.72368078 23.83134439 11 18 C10.54109375 17.28714844 10.0821875 16.57429688 9.609375 15.83984375 C6.27007695 10.62745204 3.00642459 5.41156426 0 0 Z " fill="#F8FCFB" transform="translate(416,216)"/>
<path d="M0 0 C2.97 0 5.94 0 9 0 C9 16.83 9 33.66 9 51 C6.03 51 3.06 51 0 51 C0 34.17 0 17.34 0 0 Z " fill="#F6FCFB" transform="translate(366,201)"/>
<path d="M0 0 C2.475 0.495 2.475 0.495 5 1 C5.66 0.67 6.32 0.34 7 0 C13.53333333 -0.23333333 13.53333333 -0.23333333 16 1 C16 1.66 16 2.32 16 3 C16.495 2.505 16.99 2.01 17.5 1.5 C20.87783744 -0.52670246 24.15106474 -0.95471636 28 0 C30.234375 1.44921875 30.234375 1.44921875 32 4 C32.48345082 7.0992651 32.37703023 10.12310195 32.25 13.25 C32.23195313 14.09046875 32.21390625 14.9309375 32.1953125 15.796875 C32.14830798 17.86507395 32.07656724 19.93268441 32 22 C30.35 22 28.7 22 27 22 C26.67 16.72 26.34 11.44 26 6 C23.525 5.505 23.525 5.505 21 5 C18.15385976 7.84614024 18.54420924 10.80369142 18.375 14.625 C18.33632813 15.33140625 18.29765625 16.0378125 18.2578125 16.765625 C18.16352276 18.50998524 18.08067109 20.25495691 18 22 C16.68 22 15.36 22 14 22 C13.93941406 20.94039063 13.87882812 19.88078125 13.81640625 18.7890625 C13.73199873 17.40102779 13.64735083 16.01300768 13.5625 14.625 C13.52318359 13.92632812 13.48386719 13.22765625 13.44335938 12.5078125 C13.25719866 8.62639508 13.25719866 8.62639508 12 5 C9.58354218 4.83312552 9.58354218 4.83312552 7 5 C4.15385976 7.84614024 4.54420924 10.80369142 4.375 14.625 C4.33632813 15.33140625 4.29765625 16.0378125 4.2578125 16.765625 C4.16352276 18.50998524 4.08067109 20.25495691 4 22 C2.68 22 1.36 22 0 22 C0 14.74 0 7.48 0 0 Z " fill="#F4FBFA" transform="translate(310,277)"/>
<path d="M0 0 C2.3181362 1.89111111 3.66914015 3.33828031 5 6 C5.40104417 11.21357417 4.87196113 14.58948826 2 19 C-0.64444635 21.17222379 -2.02987018 20.99893321 -5.5 20.875 C-9.30972781 19.92256805 -10.64628244 19.07793835 -13 16 C-14.51687471 11.44937587 -14.71895824 7.61765604 -12.75 3.1875 C-8.96991268 -1.53760915 -5.77476388 -1.44369097 0 0 Z " fill="#2EDEC0" transform="translate(347,224)"/>
<path d="M0 0 C2.9375 1.1875 2.9375 1.1875 5 3 C5.8125 5.6875 5.8125 5.6875 6 8 C4.25 8.75 4.25 8.75 2 9 C1.38125 8.34 0.7625 7.68 0.125 7 C-0.57625 6.34 -1.2775 5.68 -2 5 C-5.19954954 5.14349347 -5.19954954 5.14349347 -8 6 C-8 7.65 -8 9.3 -8 11 C-6.75283203 11.36351562 -6.75283203 11.36351562 -5.48046875 11.734375 C-4.39378906 12.06953125 -3.30710938 12.4046875 -2.1875 12.75 C-1.10855469 13.07484375 -0.02960938 13.3996875 1.08203125 13.734375 C4.22354471 15.09695915 5.35013329 16.04493052 7 19 C7.58490372 22.92721068 7.34594305 24.48108543 5.125 27.8125 C2.14079676 30.88447393 0.3678764 31.2120468 -3.8125 31.375 C-7.82376192 31.34597495 -8.76060789 31.17715016 -12.125 28.6875 C-14 26 -14 26 -14 23 C-12.25 22.25 -12.25 22.25 -10 22 C-9.38125 22.639375 -8.7625 23.27875 -8.125 23.9375 C-6.10226498 26.34051794 -6.10226498 26.34051794 -2.75 26.25 C-1.8425 26.1675 -0.935 26.085 0 26 C0.66 24.02 1.32 22.04 2 20 C0.89591797 19.76216797 0.89591797 19.76216797 -0.23046875 19.51953125 C-10.69268327 17.01799779 -10.69268327 17.01799779 -14 12 C-14.6875 8.5 -14.6875 8.5 -14 5 C-9.65636833 -0.10376722 -6.56589729 -0.83376473 0 0 Z " fill="#F3FBF9" transform="translate(222,268)"/>
<path d="M0 0 C2.97 0 5.94 0 9 0 C9 11.88 9 23.76 9 36 C6.03 36 3.06 36 0 36 C0 24.12 0 12.24 0 0 Z " fill="#FBFDFD" transform="translate(248,216)"/>
<path d="M0 0 C3.16872216 0.68885264 4.96142228 2.13674555 7.15625 4.46875 C8.15625 6.46875 8.15625 6.46875 8.15625 12.46875 C2.87625 12.46875 -2.40375 12.46875 -7.84375 12.46875 C-7.18375 14.11875 -6.52375 15.76875 -5.84375 17.46875 C-2.42718976 17.63552282 -2.42718976 17.63552282 1.15625 17.46875 C1.81625 16.80875 2.47625 16.14875 3.15625 15.46875 C5.28125 15.84375 5.28125 15.84375 7.15625 16.46875 C5.78641497 19.62990776 5.1671862 20.4614592 2.15625 22.46875 C-2.94632186 23.04484682 -2.94632186 23.04484682 -5.84375 22.46875 C-8.78125 20.03125 -8.78125 20.03125 -10.84375 17.46875 C-11.17375 17.13875 -11.50375 16.80875 -11.84375 16.46875 C-12.47531904 11.67784768 -12.76464305 6.93979777 -9.90625 2.84375 C-6.31078752 0.05543216 -4.43697426 -0.29579828 0 0 Z " fill="#F4FBF9" transform="translate(297.84375,276.53125)"/>
<path d="M0 0 C2.32421875 0.08984375 2.32421875 0.08984375 5 1 C6.58203125 3.94140625 6.58203125 3.94140625 7.8125 7.5625 C8.23144531 8.76003906 8.65039062 9.95757812 9.08203125 11.19140625 C9.38496094 12.11824219 9.68789062 13.04507812 10 14 C10.27714844 13.07316406 10.55429688 12.14632813 10.83984375 11.19140625 C11.20207031 9.99386719 11.56429687 8.79632813 11.9375 7.5625 C12.47697266 5.77005859 12.47697266 5.77005859 13.02734375 3.94140625 C14 1 14 1 15 0 C16.66617115 -0.04063832 18.33388095 -0.042721 20 0 C17.9792736 6.20374107 15.8248163 12.34120224 13.5 18.4375 C13.20480469 19.23865234 12.90960938 20.03980469 12.60546875 20.86523438 C12.31285156 21.63029297 12.02023438 22.39535156 11.71875 23.18359375 C11.46029297 23.86993896 11.20183594 24.55628418 10.93554688 25.26342773 C10 27 10 27 7 29 C4.3125 29.125 4.3125 29.125 2 29 C2 27.68 2 26.36 2 25 C2.99 24.67 3.98 24.34 5 24 C6.44681762 18.66744363 5.26063935 15.1753422 3.0625 10.3125 C0 3.32511086 0 3.32511086 0 0 Z " fill="#F2FBF9" transform="translate(231,277)"/>
<path d="M0 0 C0.7734375 -0.00773437 1.546875 -0.01546875 2.34375 -0.0234375 C4.95159728 0.45844732 5.83871866 1.36229376 7.5 3.375 C7.17 4.365 6.84 5.355 6.5 6.375 C3.53 6.045 0.56 5.715 -2.5 5.375 C-2.5 6.035 -2.5 6.695 -2.5 7.375 C-1.78972656 7.59414063 -1.07945312 7.81328125 -0.34765625 8.0390625 C7.1300578 10.61903116 7.1300578 10.61903116 8.9375 14.3125 C8.5 17.375 8.5 17.375 6.5625 20.25 C2.36661535 23.16143017 0.532929 23.09398986 -4.5 22.375 C-7 20.375 -7 20.375 -8.5 18.375 C-8.005 16.89 -8.005 16.89 -7.5 15.375 C-3.625 16.25 -3.625 16.25 -2.5 17.375 C-0.83382885 17.41563832 0.83388095 17.417721 2.5 17.375 C2.5 16.385 2.5 15.395 2.5 14.375 C1.94570313 14.18164062 1.39140625 13.98828125 0.8203125 13.7890625 C0.09585937 13.52867187 -0.62859375 13.26828125 -1.375 13 C-2.45394531 12.61714844 -2.45394531 12.61714844 -3.5546875 12.2265625 C-5.5 11.375 -5.5 11.375 -7.5 9.375 C-8.05829517 4.12702536 -8.05829517 4.12702536 -6.26171875 1.70703125 C-4.03861647 0.02614904 -2.76393378 -0.02763934 0 0 Z " fill="#F3FBF9" transform="translate(353.5,276.625)"/>
<path d="M0 0 C3.04851754 0.52276023 4.39232171 1.90606308 6.1640625 4.37109375 C5.8340625 5.03109375 5.5040625 5.69109375 5.1640625 6.37109375 C4.6071875 6.22671875 4.0503125 6.08234375 3.4765625 5.93359375 C1.05022055 5.34340247 -1.38500095 4.84766475 -3.8359375 4.37109375 C-4.1659375 5.36109375 -4.4959375 6.35109375 -4.8359375 7.37109375 C-4.20945312 7.56445312 -3.58296875 7.7578125 -2.9375 7.95703125 C-1.71160156 8.34761719 -1.71160156 8.34761719 -0.4609375 8.74609375 C0.35117187 9.00132812 1.16328125 9.2565625 2 9.51953125 C4.1640625 10.37109375 4.1640625 10.37109375 6.1640625 12.37109375 C6.6015625 15.24609375 6.6015625 15.24609375 6.1640625 18.37109375 C3.44242875 21.50509625 1.77859464 22.28330344 -2.3359375 22.87109375 C-6.33547517 22.29973123 -7.97227171 21.14798179 -10.8359375 18.37109375 C-10.3409375 16.88609375 -10.3409375 16.88609375 -9.8359375 15.37109375 C-6.13693742 16.25885377 -2.49043289 17.31691239 1.1640625 18.37109375 C0.96768444 16.405086 0.96768444 16.405086 0.1640625 14.37109375 C-1.61900162 13.31069387 -1.61900162 13.31069387 -3.7734375 12.74609375 C-6.58845846 11.87757549 -7.69972887 11.50730238 -9.8359375 9.37109375 C-10.39461635 4.11951258 -10.39461635 4.11951258 -8.59375 1.70703125 C-5.81595348 -0.4040941 -3.37999391 -0.09358289 0 0 Z " fill="#F3FBF9" transform="translate(262.8359375,276.62890625)"/>
<path d="M0 0 C1.32 0 2.64 0 4 0 C4 1.98 4 3.96 4 6 C5.98 6 7.96 6 10 6 C10 7.32 10 8.64 10 10 C8.02 10 6.04 10 4 10 C4.33 14.29 4.66 18.58 5 23 C6.65 23 8.3 23 10 23 C9.67 24.65 9.34 26.3 9 28 C3.59016393 28.36065574 3.59016393 28.36065574 1.3125 26.96875 C-0.708874 23.936689 -0.31526465 20.82111386 -0.1875 17.3125 C-0.16719727 16.2596582 -0.16719727 16.2596582 -0.14648438 15.18554688 C-0.11120182 13.45670171 -0.05739583 11.72825235 0 10 C-0.99 10 -1.98 10 -3 10 C-3 8.68 -3 7.36 -3 6 C-2.01 6 -1.02 6 0 6 C0 4.02 0 2.04 0 0 Z " fill="#F7FCFB" transform="translate(274,271)"/>
<path d="M0 0 C2.9375 2.375 2.9375 2.375 5 5 C5 5.66 5 6.32 5 7 C-0.28 7 -5.56 7 -11 7 C-9.31882796 0.27531184 -6.9732153 -0.9618228 0 0 Z " fill="#2EDEC0" transform="translate(401,223)"/>
<path d="M0 0 C2 2 2 2 2.375 4.4375 C2 7 2 7 0.3125 8.875 C-2.61922354 10.30124388 -3.95326554 10.04230389 -7 9 C-7.66 8.34 -8.32 7.68 -9 7 C-8.75 3.9375 -8.75 3.9375 -8 1 C-5.23749964 -0.38125018 -3.05268901 -0.19079306 0 0 Z " fill="#F1FAF9" transform="translate(256,202)"/>
<path d="M0 0 C5.28 0 10.56 0 16 0 C14.35 1.32 12.7 2.64 11 4 C10.34 4.66 9.68 5.32 9 6 C5.375 5.625 5.375 5.625 2 5 C1.34 3.35 0.68 1.7 0 0 Z " fill="#37DFC2" transform="translate(290,289)"/>
<path d="M0 0 C3.0625 0.1875 3.0625 0.1875 5.0625 2.1875 C5.0625 3.1775 5.0625 4.1675 5.0625 5.1875 C1.7625 5.1875 -1.5375 5.1875 -4.9375 5.1875 C-3.69966216 0.23614865 -3.69966216 0.23614865 0 0 Z " fill="#32DEC1" transform="translate(295.9375,280.8125)"/>
</svg>
